# xmcd CD database file
#
# Track frame offsets:
#	150
#	14243
#	27317
#	39739
#	54191
#	65922
#	79252
#	92670
#	105232
#	121497
#	136003
#	148068
#	162098
#	175228
#	189728
#	203678
#	218075
#	231757
#	246154
#	260027
#	272455
#	286990
#	301340
#
# Disc length: 4190 seconds
#
# Revision: 4
# Processed by: cddbd v1.5.2PL0 Copyright (c) Steve Scherf et al.
# Submitted via: CDex 1.70beta2
#
DISCID=4d105c17
DTITLE=Various Artist - Jazz In The Charts 17-100 - 1934-2 - WAV
DYEAR=1934
DGENRE=Jazz
TTITLE0=Jack Teagarden and His Orchestra - I've Got it
TTITLE1=Ethel Waters With The Victor Young Orchestra - Come Up And See Me Sometime
TTITLE2=Claude Hopkins and His Orchestra - Three Little Words
TTITLE3=Benny Goodman and His Orchestra - I Ain't Lazy, I'm Just Dreaming
TTITLE4=Mills Brothers - Swing it, Sister
TTITLE5=Joe Sullivan - Onyx Bringdown
TTITLE6=Chick Webb and His Orchestra - I Can't Dance (I Got Ants in My Pants)
TTITLE7=Henry "Red" Allen and His Orchestra - I Wish I Were Twins
TTITLE8=Benny Goodman and His Orchestra - Moonglow
TTITLE9=Casa Loma Orchestra - Limehouse Blues
TTITLE10=Fats Waller and His Rhythm - I Wish I Were Twins
TTITLE11=Mills Brothers - Money In My Pocket
TTITLE12=Ben Pollack and His Orchestra - Freckle Face, You're Beautiful
TTITLE13=Ben Pollack and His Orchestra - Sleepy Head
TTITLE14=Mills Brothers - Sleepy Head
TTITLE15=Chick Webb and His Orchestra - Stomping At The Savoy
TTITLE16=Casa Loma Orchestra - Spellbound
TTITLE17=Claude Hopkins and His Orchestra - Margie
TTITLE18=Casa Loma Orchestra - I Never Had A Chance
TTITLE19=Ben Pollack and His Orchestra - I've Got A Warm Spot In My Heart For You
TTITLE20=Casa Loma Orchestra - Moonglow
TTITLE21=Cab Calloway and His Cotton Club Orchestra - Moonglow
TTITLE22=Glen Gray Casa Loma Orchestra - Pardon My Southern Accent
EXTD=YEAR: 1934
EXTT0=
EXTT1=
EXTT2=
EXTT3=
EXTT4=
EXTT5=
EXTT6=
EXTT7=
EXTT8=
EXTT9=
EXTT10=
EXTT11=
EXTT12=
EXTT13=
EXTT14=
EXTT15=
EXTT16=
EXTT17=
EXTT18=
EXTT19=
EXTT20=
EXTT21=
EXTT22=
PLAYORDER=
